<?xml version="1.0" encoding="iso-8859-1"?>
<!-- Uploaded to: SVG Repo, www.svgrepo.com, Generator: SVG Repo Mixer Tools -->
<svg fill="#000000" height="800px" width="800px" version="1.1" id="Layer_1" xmlns="http://www.w3.org/2000/svg" xmlns:xlink="http://www.w3.org/1999/xlink" 
	 viewBox="0 0 511.999 511.999" xml:space="preserve">
<g>
	<g>
		<g>
			<path d="M375.384,214.932c-10.543-15.209-21.446-30.935-21.446-37.134v-6.367c0-7.76-4.532-14.465-11.078-17.659v-12.624
				c0-12.184-10.225-21.027-24.314-21.027h-16.488v-6.296c6.471-1.478,11.319-7.269,11.319-14.183V63.256
				c0-8.027-6.532-14.558-14.558-14.558h-36.386c-8.027,0-14.558,6.532-14.558,14.558v36.385c0,6.913,4.848,12.705,11.319,14.183
				v6.296h-21.469c-10.116,0-19.33,10.022-19.33,21.027v12.624c-6.547,3.194-11.078,9.899-11.078,17.659v6.367
				c0,6.199-10.901,21.926-21.445,37.134c-25.891,37.347-65.017,93.787-65.017,162.432c0,53.741,26.79,103.57,71.664,133.289
				c1.325,0.878,2.879,1.345,4.468,1.345h167.287c1.589,0,3.142-0.468,4.468-1.345c44.874-29.722,71.663-79.548,71.663-133.289
				C440.401,308.719,401.274,252.279,375.384,214.932z M264.056,94.253c4.244-2.686,7.07-7.411,7.07-12.804
				c0-5.395-2.826-10.119-7.07-12.806v-3.764h33.141V98.02h-33.141V94.253z M285.879,114.199v5.92h-10.502v-5.92H285.879z
				 M234.574,141.148c0-2.532,2.252-4.597,3.259-4.847h80.714c4.788,0,8.133,1.993,8.133,4.847v10.625h-92.106V141.148z
				 M361.798,495.819H199.456c-39.134-26.858-62.423-70.956-62.423-118.455c0-63.585,37.392-117.523,62.135-153.214
				c14.65-21.133,24.328-35.092,24.328-46.353v-6.367c0-1.918,1.561-3.479,3.479-3.479H334.28c1.918,0,3.479,1.56,3.479,3.479v6.367
				c0,11.261,9.678,25.22,24.328,46.353c24.743,35.691,62.133,89.629,62.133,153.214
				C424.22,424.861,400.931,468.961,361.798,495.819z"/>
			<path d="M162.621,124.572c4.827-1.243,9.464-3.272,13.662-6c0.033-0.022,0.067-0.042,0.099-0.065l0.153-0.098
				c0.167-0.108,0.334-0.216,0.499-0.329l1.832-1.208c10.312-6.822,29.507-19.52,50.726-19.52c8.771,0,15.908-7.135,15.908-15.906
				c0-8.772-7.137-15.908-15.908-15.908c-18.959,0-34.952-11.401-45.534-18.945c-2.121-1.512-3.964-2.826-5.68-3.95
				c-2.642-1.935-5.473-3.578-8.453-4.907c-6.411-12.344-18.073-21.15-31.647-23.939C132.844,5.291,123.392,0,113.094,0
				c-16.482,0-29.89,13.408-29.89,29.889c0,4.337,0.932,8.574,2.72,12.464c-2.059,5.296-3.1,10.875-3.1,16.64
				c0,7.02,1.564,13.824,4.57,20.034c-10.01,8.681-15.799,21.199-15.799,34.78c0,25.442,20.698,46.142,46.139,46.142
				C139.431,159.947,157.757,145.116,162.621,124.572z M147.544,116.86c-1.548,15.339-14.362,26.906-29.807,26.906
				c-16.519,0-29.959-13.441-29.959-29.961c0-10.585,5.419-20.179,14.497-25.665c1.934-1.168,3.291-3.093,3.743-5.306
				c0.452-2.215-0.043-4.517-1.365-6.349c-3.695-5.125-5.647-11.173-5.647-17.494c0-4.702,1.067-9.213,3.17-13.408
				c1.302-2.596,1.112-5.693-0.498-8.112c-1.5-2.252-2.293-4.876-2.293-7.584c0-7.558,6.151-13.708,13.709-13.708
				c5.443,0,10.373,3.229,12.559,8.226c1.164,2.66,3.663,4.493,6.549,4.802c10.748,1.153,20.07,8.062,24.328,18.029
				c0.885,2.071,2.592,3.679,4.713,4.439c2.754,0.986,5.347,2.371,7.707,4.119c0.133,0.098,0.268,0.192,0.405,0.282
				c1.482,0.964,3.256,2.226,5.307,3.691c10.531,7.508,27.552,19.643,48.847,21.663c-23.383,1.975-42.764,14.799-53.572,21.947
				l-1.846,1.218c-0.042,0.028-0.084,0.056-0.125,0.084l-0.404,0.262c-0.042,0.026-0.084,0.054-0.126,0.081
				c-3.884,2.525-8.184,4.076-12.781,4.613C150.884,110.076,147.925,113.082,147.544,116.86z"/>
		</g>
	</g>
</g>
</svg>